<svg width="48" height="48" version="1.1" viewBox="0 0 12.7 12.7" xmlns="http://www.w3.org/2000/svg" xmlns:xlink="http://www.w3.org/1999/xlink"><defs><linearGradient id="linearGradient5586" x1="61.452" x2="74.297" y1="1011.8" y2="1023.9" gradientTransform="matrix(.1987 0 0 .2108 -2.2217 -205.97)" gradientUnits="userSpaceOnUse"><stop style="stop-color:#000000;stop-opacity:.57647" offset="0"/><stop style="stop-color:#000000;stop-opacity:.57647" offset=".1"/><stop style="stop-color:#000000;stop-opacity:0" offset="1"/></linearGradient><linearGradient id="linearGradient7821" x1="44.969" x2="69" y1="994.75" y2="1017.4" gradientTransform="matrix(.1987 0 0 .2108 -5.4291 -206.27)" gradientUnits="userSpaceOnUse"><stop style="stop-color:#000000;stop-opacity:.57647" offset="0"/><stop style="stop-color:#000000;stop-opacity:.57647" offset=".44052"/><stop style="stop-color:#000000;stop-opacity:0" offset="1"/></linearGradient></defs><rect x="9.5367e-8" y="9.5367e-8" width="12.7" height="12.7" ry="3.1395e-6" style="fill:#01ff20"/><rect x=".41639" y=".41639" width="11.867" height="11.867" ry="2.9337e-6" style="fill:#222222"/><path d="m12.258 10.977-1.8647-2.5566-4.3595.72436 2.5391 3.0304c2.7308 0 1.0255.10876 3.71.10876 0-.95058-.02489-.05587-.02489-1.307z" style="fill-rule:evenodd;fill:url(#linearGradient5586)"/><circle cx="24.056" cy=".28261" r="0" style="fill:#01ff20"/><path d="m5.6617 6.1637-2.712 2.956 3.6676 3.1519c2.7308 0-.22591-.28728 2.4586-.28728 1.9587-1.9587 2.7233-.47982-3.4142-5.8206z" style="fill-rule:evenodd;fill:url(#linearGradient7821)"/><path d="m5.5675 6.5284-2.4521 2.4521c-.11826.11826-.30999.11826-.42824 0l-.28601-.286c-.11806-.11806-.11829-.3094-.000485-.42774l1.9433-1.9525-1.9433-1.9525c-.11778-.11834-.11756-.30968.000484-.42774l.28599-.28599c.11826-.11826.30999-.11826.42824 0l2.4521 2.4521c.11826.11825.11826.30998 0 .42824zm4.82 2.3093v-.40375c0-.16724-.13557-.30281-.30281-.30281h-3.8356c-.16724 0-.30281.13557-.30281.30281v.40375c0 .16724.13557.30281.30281.30281h3.8356c.16724 0 .30281-.13557.30281-.30281z" style="fill:#00ff00;stroke-width:.012617"/></svg>
