<svg width="256" height="256" version="1.1" viewBox="0 0 240 240" xmlns="http://www.w3.org/2000/svg" xmlns:xlink="http://www.w3.org/1999/xlink"><title>Polychromatic</title><defs><linearGradient id="linearGradient4616"><stop style="stop-color:#ff0000" offset="0"/><stop style="stop-color:#ffff00" offset=".25"/><stop style="stop-color:#00ffff" offset=".5"/><stop style="stop-color:#0000ff" offset=".75"/><stop style="stop-color:#ff00ff" offset="1"/></linearGradient><linearGradient id="linearGradient4730-3" x1="47.922" x2="221.9" y1="923.41" y2="923.41" gradientUnits="userSpaceOnUse" xlink:href="#linearGradient4616"/></defs><g transform="translate(-14 -1014.9)"><rect x="14" y="1014.9" width="240" height="240" ry="5.933e-5" style="fill:#01ff20"/><rect x="21.869" y="1022.7" width="224.26" height="224.26" ry="5.5439e-5" style="fill:#222222"/><circle cx="50.5" cy="990.86" r="0" style="fill:#01ff20"/><g transform="matrix(5.1059 0 0 5.6491 -77.283 -4626.1)" style="fill:none;stroke-width:9.0643;stroke:#01ff20"><g transform="matrix(1.3051,0,0,1.3051,40.629,-297.14)" style="opacity:0"><g transform="matrix(.18234 0 0 .18234 -23.79 814.03)" style="fill:none;stroke:url(#linearGradient4730-3)"><g transform="translate(1.8082)" style="fill:#01ff1f;stroke:url(#linearGradient4730-3)"></g><g transform="translate(1.8082,23.24)" style="fill:#01ff1f;stroke:url(#linearGradient4730-3)"></g></g></g><g transform="rotate(10.507,31.71,1017)"><path d="m25.736 1008.9 16.083 4.0207v17.088l-17.088-4.0207z" style="fill:none;stroke-opacity:.98165;stroke-width:2.4124;stroke:#00f000"/><path d="m42.513 1030.2 17.088-4.0207-1.0052-17.088-16.083 4.0207" style="fill:none;stroke-opacity:.98165;stroke-width:2.4124;stroke:#00f000"/></g><path d="m29.455 1013.3 10.039 4.0869" style="fill:none;stroke-width:2.0103;stroke:#00ff00"/><path d="m27.945 1017.6 10.039 4.0869" style="fill:none;stroke-width:2.0103;stroke:#00ff00"/><path d="m44.353 1022.7 10.822.609" style="fill:none;stroke-width:2.0103;stroke:#00ff00"/><path d="m44.002 1026.9 10.822.609" style="fill:none;stroke-width:2.0103;stroke:#00ff00"/></g></g></svg>
