<?xml version="1.0" encoding="UTF-8" standalone="no"?>
<svg
   width="640"
   height="120"
   viewBox="0 0 169.33333 31.75"
   version="1.1"
   id="svg8"
   xmlns="http://www.w3.org/2000/svg"
   xmlns:svg="http://www.w3.org/2000/svg"
   xmlns:rdf="http://www.w3.org/1999/02/22-rdf-syntax-ns#"
   xmlns:cc="http://creativecommons.org/ns#"
   xmlns:dc="http://purl.org/dc/elements/1.1/">
  <title
     id="title910">Polychromatic Header</title>
  <defs
     id="defs2" />
  <metadata
     id="metadata5">
    <rdf:RDF>
      <cc:Work
         rdf:about="">
        <dc:format>image/svg+xml</dc:format>
        <dc:type
           rdf:resource="http://purl.org/dc/dcmitype/StillImage" />
        <dc:title>Polychromatic Header</dc:title>
        <dc:date>October 2018</dc:date>
        <dc:creator>
          <cc:Agent>
            <dc:title>Luke Horwell</dc:title>
          </cc:Agent>
        </dc:creator>
        <dc:rights>
          <cc:Agent>
            <dc:title>GPLv3</dc:title>
          </cc:Agent>
        </dc:rights>
      </cc:Work>
    </rdf:RDF>
  </metadata>
  <g
     id="layer1"
     transform="translate(0,-276.23726)">
    <g
       transform="matrix(0.35880146,0,0,0.35880146,-200.35187,227.59609)"
       id="g937"
       style="fill:#000000" />
    <g
       style="fill:#000000"
       transform="matrix(0.26458333,0,0,0.26458333,-241.81491,150.93732)"
       id="layer1-4">
      <g
         transform="matrix(2.8822,0,0,2.8822,4.3323,-1930)"
         id="g4839">
        <g
           id="g5088"
           style="fill:none;stroke-width:7.8;stroke-linecap:round" />
        <g
           id="g5116"
           style="fill:#191919;fill-rule:evenodd;stroke-width:0" />
      </g>
    </g>
    <g
       stroke="#191919"
       stroke-linecap="round"
       stroke-linejoin="round"
       transform="matrix(0.17281738,0,0,0.17281738,-5.7845798,132.51548)"
       id="g1550">
      <path
         d="m 82.475,973.22 -34.212,-0.0446 0.02499,20.712 h 34.196 v -20.676"
         fill="none"
         stroke-width="2.523"
         id="path1500" />
      <g
         fill="#191919"
         stroke-miterlimit="0"
         stroke-width="7.9674"
         transform="matrix(0.1932,0,0,0.1932,39.464,796.46)"
         id="g1548">
        <g
           stroke-width="8.7058"
           id="g1544">
          <g
             id="g1514">
            <path
               id="rect1502"
               d="m 67.629898,935.93158 h 5.923 c 1.017532,0 1.8367,0.80342 1.8367,1.8014 v 5.9936 c 0,0.99798 -0.819168,1.8014 -1.8367,1.8014 h -5.923 c -1.017532,0 -1.8367,-0.80342 -1.8367,-1.8014 v -5.9936 c 0,-0.99798 0.819168,-1.8014 1.8367,-1.8014 z" />
            <path
               id="rect1504"
               d="m 93.044899,935.93256 h 5.923 c 1.017532,0 1.836701,0.80342 1.836701,1.8014 v 5.9936 c 0,0.99797 -0.819169,1.8014 -1.836701,1.8014 h -5.923 c -1.017532,0 -1.8367,-0.80343 -1.8367,-1.8014 v -5.9936 c 0,-0.99798 0.819168,-1.8014 1.8367,-1.8014 z" />
            <path
               id="rect1506"
               d="m 118.4599,935.93256 h 5.923 c 1.01753,0 1.8367,0.80342 1.8367,1.8014 v 5.9936 c 0,0.99797 -0.81917,1.8014 -1.8367,1.8014 h -5.923 c -1.01753,0 -1.8367,-0.80343 -1.8367,-1.8014 v -5.9936 c 0,-0.99798 0.81917,-1.8014 1.8367,-1.8014 z" />
            <path
               id="rect1508"
               d="m 143.87489,935.93256 h 5.923 c 1.01753,0 1.8367,0.80342 1.8367,1.8014 v 5.9936 c 0,0.99797 -0.81917,1.8014 -1.8367,1.8014 h -5.923 c -1.01753,0 -1.8367,-0.80343 -1.8367,-1.8014 v -5.9936 c 0,-0.99798 0.81917,-1.8014 1.8367,-1.8014 z" />
            <path
               id="rect1510"
               d="m 169.28889,935.93158 h 5.923 c 1.01754,0 1.8367,0.80342 1.8367,1.8014 v 5.9936 c 0,0.99798 -0.81916,1.8014 -1.8367,1.8014 h -5.923 c -1.01753,0 -1.8367,-0.80342 -1.8367,-1.8014 v -5.9936 c 0,-0.99798 0.81917,-1.8014 1.8367,-1.8014 z" />
            <path
               id="rect1512"
               d="m 194.70889,935.93158 h 5.923 c 1.01753,0 1.8367,0.80342 1.8367,1.8014 v 5.9936 c 0,0.99798 -0.81917,1.8014 -1.8367,1.8014 h -5.923 c -1.01753,0 -1.8367,-0.80342 -1.8367,-1.8014 v -5.9936 c 0,-0.99798 0.81917,-1.8014 1.8367,-1.8014 z" />
          </g>
          <g
             id="g1528">
            <path
               id="rect1516"
               d="m 67.629898,962.01703 h 5.923 c 1.017532,0 1.8367,0.80342 1.8367,1.8014 v 5.9936 c 0,0.99797 -0.819168,1.8014 -1.8367,1.8014 h -5.923 c -1.017532,0 -1.8367,-0.80343 -1.8367,-1.8014 v -5.9936 c 0,-0.99798 0.819168,-1.8014 1.8367,-1.8014 z" />
            <path
               id="rect1518"
               d="m 93.044899,962.01801 h 5.923 c 1.017532,0 1.836701,0.80342 1.836701,1.8014 v 5.9936 c 0,0.99797 -0.819169,1.8014 -1.836701,1.8014 h -5.923 c -1.017532,0 -1.8367,-0.80343 -1.8367,-1.8014 v -5.9936 c 0,-0.99798 0.819168,-1.8014 1.8367,-1.8014 z" />
            <path
               id="rect1520"
               d="m 118.4599,962.01801 h 5.923 c 1.01753,0 1.8367,0.80342 1.8367,1.8014 v 5.9936 c 0,0.99797 -0.81917,1.8014 -1.8367,1.8014 h -5.923 c -1.01753,0 -1.8367,-0.80343 -1.8367,-1.8014 v -5.9936 c 0,-0.99798 0.81917,-1.8014 1.8367,-1.8014 z" />
            <path
               id="rect1522"
               d="m 143.87489,962.01801 h 5.923 c 1.01753,0 1.8367,0.80342 1.8367,1.8014 v 5.9936 c 0,0.99797 -0.81917,1.8014 -1.8367,1.8014 h -5.923 c -1.01753,0 -1.8367,-0.80343 -1.8367,-1.8014 v -5.9936 c 0,-0.99798 0.81917,-1.8014 1.8367,-1.8014 z" />
            <path
               id="rect1524"
               d="m 169.28889,962.01703 h 5.923 c 1.01754,0 1.8367,0.80342 1.8367,1.8014 v 5.9936 c 0,0.99797 -0.81916,1.8014 -1.8367,1.8014 h -5.923 c -1.01753,0 -1.8367,-0.80343 -1.8367,-1.8014 v -5.9936 c 0,-0.99798 0.81917,-1.8014 1.8367,-1.8014 z" />
            <path
               id="rect1526"
               d="m 194.70889,962.01703 h 5.923 c 1.01753,0 1.8367,0.80342 1.8367,1.8014 v 5.9936 c 0,0.99797 -0.81917,1.8014 -1.8367,1.8014 h -5.923 c -1.01753,0 -1.8367,-0.80343 -1.8367,-1.8014 v -5.9936 c 0,-0.99798 0.81917,-1.8014 1.8367,-1.8014 z" />
          </g>
          <g
             id="g1542">
            <path
               id="rect1530"
               d="m 67.629898,990.84302 h 5.923 c 1.017532,0 1.8367,0.80342 1.8367,1.8014 v 5.9936 c 0,0.99797 -0.819168,1.80138 -1.8367,1.80138 h -5.923 c -1.017532,0 -1.8367,-0.80341 -1.8367,-1.80138 v -5.9936 c 0,-0.99798 0.819168,-1.8014 1.8367,-1.8014 z" />
            <path
               id="rect1532"
               d="m 93.044899,990.84399 h 5.923 c 1.017532,0 1.836701,0.80343 1.836701,1.8014 v 5.9936 c 0,0.99798 -0.819169,1.80141 -1.836701,1.80141 h -5.923 c -1.017532,0 -1.8367,-0.80343 -1.8367,-1.80141 v -5.9936 c 0,-0.99797 0.819168,-1.8014 1.8367,-1.8014 z" />
            <path
               id="rect1534"
               d="m 118.4599,990.84399 h 5.923 c 1.01753,0 1.8367,0.80343 1.8367,1.8014 v 5.9936 c 0,0.99798 -0.81917,1.80141 -1.8367,1.80141 h -5.923 c -1.01753,0 -1.8367,-0.80343 -1.8367,-1.80141 v -5.9936 c 0,-0.99797 0.81917,-1.8014 1.8367,-1.8014 z" />
            <path
               id="rect1536"
               d="m 143.87489,990.84399 h 5.923 c 1.01753,0 1.8367,0.80343 1.8367,1.8014 v 5.9936 c 0,0.99798 -0.81917,1.80141 -1.8367,1.80141 h -5.923 c -1.01753,0 -1.8367,-0.80343 -1.8367,-1.80141 v -5.9936 c 0,-0.99797 0.81917,-1.8014 1.8367,-1.8014 z" />
            <path
               id="rect1538"
               d="m 169.28889,990.84302 h 5.923 c 1.01754,0 1.8367,0.80342 1.8367,1.8014 v 5.9936 c 0,0.99797 -0.81916,1.80138 -1.8367,1.80138 h -5.923 c -1.01753,0 -1.8367,-0.80341 -1.8367,-1.80138 v -5.9936 c 0,-0.99798 0.81917,-1.8014 1.8367,-1.8014 z" />
            <path
               id="rect1540"
               d="m 194.70889,990.84302 h 5.923 c 1.01753,0 1.8367,0.80342 1.8367,1.8014 v 5.9936 c 0,0.99797 -0.81917,1.80138 -1.8367,1.80138 h -5.923 c -1.01753,0 -1.8367,-0.80341 -1.8367,-1.80138 v -5.9936 c 0,-0.99798 0.81917,-1.8014 1.8367,-1.8014 z" />
          </g>
        </g>
        <path
           id="rect1546"
           transform="matrix(1.413,0,0,1.125,43.668372,-45.12625)"
           style="stroke-width:7.5956"
           d="m 36.2187,920.28003 h 55.4586 c 1.017532,0 1.8367,0.80342 1.8367,1.8014 v 5.9936 c 0,0.99798 -0.819168,1.8014 -1.8367,1.8014 H 36.2187 c -1.017532,0 -1.8367,-0.80342 -1.8367,-1.8014 v -5.9936 c 0,-0.99798 0.819168,-1.8014 1.8367,-1.8014 z" />
      </g>
    </g>
    <g
       stroke="#191919"
       id="g1658"
       transform="matrix(0.13934407,0,0,0.13934407,2.1477147,288.95159)">
      <g
         stroke-linecap="round"
         stroke-linejoin="round"
         transform="matrix(1.8867385,-0.50552974,0.50552974,1.8867385,-577.65142,-1794.2862)"
         id="g1646">
        <path
           d="m 63.969,969.3 -16.248,-0.0212 0.01187,9.8361 h 16.24 v -9.8193"
           fill="none"
           stroke-width="1.1982"
           id="path1596" />
        <g
           fill="#191919"
           stroke-miterlimit="0"
           stroke-width="7.9674"
           transform="matrix(0.091753,0,0,0.091753,43.481,885.1)"
           id="g1644">
          <g
             stroke-width="8.7058"
             id="g1640">
            <g
               id="g1610">
              <path
                 id="rect1598"
                 d="m 67.629898,935.93158 h 5.923 c 1.017532,0 1.8367,0.80342 1.8367,1.8014 v 5.9936 c 0,0.99798 -0.819168,1.8014 -1.8367,1.8014 h -5.923 c -1.017532,0 -1.8367,-0.80342 -1.8367,-1.8014 v -5.9936 c 0,-0.99798 0.819168,-1.8014 1.8367,-1.8014 z" />
              <path
                 id="rect1600"
                 d="m 93.044899,935.93256 h 5.923 c 1.017532,0 1.836701,0.80342 1.836701,1.8014 v 5.9936 c 0,0.99797 -0.819169,1.8014 -1.836701,1.8014 h -5.923 c -1.017532,0 -1.8367,-0.80343 -1.8367,-1.8014 v -5.9936 c 0,-0.99798 0.819168,-1.8014 1.8367,-1.8014 z" />
              <path
                 id="rect1602"
                 d="m 118.4599,935.93256 h 5.923 c 1.01753,0 1.8367,0.80342 1.8367,1.8014 v 5.9936 c 0,0.99797 -0.81917,1.8014 -1.8367,1.8014 h -5.923 c -1.01753,0 -1.8367,-0.80343 -1.8367,-1.8014 v -5.9936 c 0,-0.99798 0.81917,-1.8014 1.8367,-1.8014 z" />
              <path
                 id="rect1604"
                 d="m 143.87489,935.93256 h 5.923 c 1.01753,0 1.8367,0.80342 1.8367,1.8014 v 5.9936 c 0,0.99797 -0.81917,1.8014 -1.8367,1.8014 h -5.923 c -1.01753,0 -1.8367,-0.80343 -1.8367,-1.8014 v -5.9936 c 0,-0.99798 0.81917,-1.8014 1.8367,-1.8014 z" />
              <path
                 id="rect1606"
                 d="m 169.28889,935.93158 h 5.923 c 1.01754,0 1.8367,0.80342 1.8367,1.8014 v 5.9936 c 0,0.99798 -0.81916,1.8014 -1.8367,1.8014 h -5.923 c -1.01753,0 -1.8367,-0.80342 -1.8367,-1.8014 v -5.9936 c 0,-0.99798 0.81917,-1.8014 1.8367,-1.8014 z" />
              <path
                 id="rect1608"
                 d="m 194.70889,935.93158 h 5.923 c 1.01753,0 1.8367,0.80342 1.8367,1.8014 v 5.9936 c 0,0.99798 -0.81917,1.8014 -1.8367,1.8014 h -5.923 c -1.01753,0 -1.8367,-0.80342 -1.8367,-1.8014 v -5.9936 c 0,-0.99798 0.81917,-1.8014 1.8367,-1.8014 z" />
            </g>
            <g
               id="g1624">
              <path
                 id="rect1612"
                 d="m 67.629898,962.01703 h 5.923 c 1.017532,0 1.8367,0.80342 1.8367,1.8014 v 5.9936 c 0,0.99797 -0.819168,1.8014 -1.8367,1.8014 h -5.923 c -1.017532,0 -1.8367,-0.80343 -1.8367,-1.8014 v -5.9936 c 0,-0.99798 0.819168,-1.8014 1.8367,-1.8014 z" />
              <path
                 id="rect1614"
                 d="m 93.044899,962.01801 h 5.923 c 1.017532,0 1.836701,0.80342 1.836701,1.8014 v 5.9936 c 0,0.99797 -0.819169,1.8014 -1.836701,1.8014 h -5.923 c -1.017532,0 -1.8367,-0.80343 -1.8367,-1.8014 v -5.9936 c 0,-0.99798 0.819168,-1.8014 1.8367,-1.8014 z" />
              <path
                 id="rect1616"
                 d="m 118.4599,962.01801 h 5.923 c 1.01753,0 1.8367,0.80342 1.8367,1.8014 v 5.9936 c 0,0.99797 -0.81917,1.8014 -1.8367,1.8014 h -5.923 c -1.01753,0 -1.8367,-0.80343 -1.8367,-1.8014 v -5.9936 c 0,-0.99798 0.81917,-1.8014 1.8367,-1.8014 z" />
              <path
                 id="rect1618"
                 d="m 143.87489,962.01801 h 5.923 c 1.01753,0 1.8367,0.80342 1.8367,1.8014 v 5.9936 c 0,0.99797 -0.81917,1.8014 -1.8367,1.8014 h -5.923 c -1.01753,0 -1.8367,-0.80343 -1.8367,-1.8014 v -5.9936 c 0,-0.99798 0.81917,-1.8014 1.8367,-1.8014 z" />
              <path
                 id="rect1620"
                 d="m 169.28889,962.01703 h 5.923 c 1.01754,0 1.8367,0.80342 1.8367,1.8014 v 5.9936 c 0,0.99797 -0.81916,1.8014 -1.8367,1.8014 h -5.923 c -1.01753,0 -1.8367,-0.80343 -1.8367,-1.8014 v -5.9936 c 0,-0.99798 0.81917,-1.8014 1.8367,-1.8014 z" />
              <path
                 id="rect1622"
                 d="m 194.70889,962.01703 h 5.923 c 1.01753,0 1.8367,0.80342 1.8367,1.8014 v 5.9936 c 0,0.99797 -0.81917,1.8014 -1.8367,1.8014 h -5.923 c -1.01753,0 -1.8367,-0.80343 -1.8367,-1.8014 v -5.9936 c 0,-0.99798 0.81917,-1.8014 1.8367,-1.8014 z" />
            </g>
            <g
               id="g1638">
              <path
                 id="rect1626"
                 d="m 67.629898,990.84302 h 5.923 c 1.017532,0 1.8367,0.80342 1.8367,1.8014 v 5.9936 c 0,0.99797 -0.819168,1.80138 -1.8367,1.80138 h -5.923 c -1.017532,0 -1.8367,-0.80341 -1.8367,-1.80138 v -5.9936 c 0,-0.99798 0.819168,-1.8014 1.8367,-1.8014 z" />
              <path
                 id="rect1628"
                 d="m 93.044899,990.84399 h 5.923 c 1.017532,0 1.836701,0.80343 1.836701,1.8014 v 5.9936 c 0,0.99798 -0.819169,1.80141 -1.836701,1.80141 h -5.923 c -1.017532,0 -1.8367,-0.80343 -1.8367,-1.80141 v -5.9936 c 0,-0.99797 0.819168,-1.8014 1.8367,-1.8014 z" />
              <path
                 id="rect1630"
                 d="m 118.4599,990.84399 h 5.923 c 1.01753,0 1.8367,0.80343 1.8367,1.8014 v 5.9936 c 0,0.99798 -0.81917,1.80141 -1.8367,1.80141 h -5.923 c -1.01753,0 -1.8367,-0.80343 -1.8367,-1.80141 v -5.9936 c 0,-0.99797 0.81917,-1.8014 1.8367,-1.8014 z" />
              <path
                 id="rect1632"
                 d="m 143.87489,990.84399 h 5.923 c 1.01753,0 1.8367,0.80343 1.8367,1.8014 v 5.9936 c 0,0.99798 -0.81917,1.80141 -1.8367,1.80141 h -5.923 c -1.01753,0 -1.8367,-0.80343 -1.8367,-1.80141 v -5.9936 c 0,-0.99797 0.81917,-1.8014 1.8367,-1.8014 z" />
              <path
                 id="rect1634"
                 d="m 169.28889,990.84302 h 5.923 c 1.01754,0 1.8367,0.80342 1.8367,1.8014 v 5.9936 c 0,0.99797 -0.81916,1.80138 -1.8367,1.80138 h -5.923 c -1.01753,0 -1.8367,-0.80341 -1.8367,-1.80138 v -5.9936 c 0,-0.99798 0.81917,-1.8014 1.8367,-1.8014 z" />
              <path
                 id="rect1636"
                 d="m 194.70889,990.84302 h 5.923 c 1.01753,0 1.8367,0.80342 1.8367,1.8014 v 5.9936 c 0,0.99797 -0.81917,1.80138 -1.8367,1.80138 h -5.923 c -1.01753,0 -1.8367,-0.80341 -1.8367,-1.80138 v -5.9936 c 0,-0.99798 0.81917,-1.8014 1.8367,-1.8014 z" />
            </g>
          </g>
          <path
             id="rect1642"
             transform="matrix(1.413,0,0,1.125,43.668372,-45.12625)"
             style="stroke-width:7.5956"
             d="m 36.2187,920.28003 h 55.4586 c 1.017532,0 1.8367,0.80342 1.8367,1.8014 v 5.9936 c 0,0.99798 -0.819168,1.8014 -1.8367,1.8014 H 36.2187 c -1.017532,0 -1.8367,-0.80342 -1.8367,-1.8014 v -5.9936 c 0,-0.99798 0.819168,-1.8014 1.8367,-1.8014 z" />
        </g>
      </g>
      <g
         transform="matrix(0.12472767,0.22132106,-0.22132106,0.12472767,252.83275,-124.45752)"
         id="g1656">
        <path
           d="m 135.06,1018.4 c -11.691,-1.0291 -17.675,2.2612 -21.423,5.5741 -6.2098,13.41 -4.8224,25.851 -1.9476,39.086 0.0453,0.1755 0.0679,0.3561 0.0673,0.5373 -0.36864,9.7465 -1.0163,9.711 -0.0673,18.67 3.5e-4,0.022 3.5e-4,0.045 0,0.067 0.0581,0.1295 0.10306,0.2645 0.13424,0.4029 0.82085,10.8 10.751,19.475 23.102,19.475 12.351,0 22.214,-8.6672 23.035,-19.475 0.0208,-0.046 0.0432,-0.091 0.0672,-0.1345 1.0805,-9.3416 0.16224,-9.3043 0,-18.535 -0.002,-0.1818 0.02,-0.3631 0.0645,-0.5394 2.957,-13.42 4.5967,-25.999 -1.6784,-39.555 -3.75,-3.3199 -12.494,-5.5747 -21.355,-5.5747 z"
           fill="none"
           stroke-width="7.8002"
           id="path1648" />
        <g
           stroke-linecap="round"
           stroke-linejoin="round"
           id="g1654">
          <path
             id="rect1650"
             style="fill:#191919;stroke-width:1.8682"
             d="m 135.4864,1027.6 c 2.06997,0 3.7364,1.6664 3.7364,3.7364 v 9.3412 c 0,2.0699 -1.66643,3.7364 -3.7364,3.7364 -2.06997,0 -3.7364,-1.6665 -3.7364,-3.7364 v -9.3412 c 0,-2.07 1.66643,-3.7364 3.7364,-3.7364 z" />
          <path
             d="m 135.59,1022.1 v 30.354"
             fill="none"
             stroke-width="1.997"
             id="path1652" />
        </g>
      </g>
    </g>
    <g
       stroke="#191919"
       transform="matrix(0.03445212,4.0654521e-4,-4.0654521e-4,0.03445212,84.309201,254.10415)"
       id="g1718">
      <path
         d="m 183.71,1023.5 c -17.857,0 -35.624,4.5573 -43.177,11.234 -12.515,27.028 -9.7193,52.1 -3.9252,78.776 0.0912,0.3537 0.13681,0.7176 0.13564,1.0829 -0.74297,19.644 -2.0483,19.572 -0.13564,37.627 7.1e-4,0.045 7.1e-4,0.09 0,0.135 0.11709,0.261 0.20772,0.533 0.27055,0.8121 1.6544,21.767 21.669,39.252 46.561,39.252 24.892,0 44.772,-17.468 46.426,-39.252 0.0419,-0.092 0.0871,-0.1824 0.13544,-0.2711 2.1777,-18.828 0.32698,-18.752 0,-37.357 -0.003,-0.3664 0.0403,-0.7318 0.13,-1.0871 5.9598,-27.048 9.2644,-52.399 -3.3827,-79.72 -7.558,-6.6911 -25.181,-11.232 -43.038,-11.232 z"
         fill="none"
         stroke-width="15.721"
         id="path1710" />
      <g
         stroke-linecap="round"
         stroke-linejoin="round"
         id="g1716">
        <path
           id="rect1712"
           style="fill:#191919;stroke-width:3.7653"
           d="m 184.5605,1042 c 4.1719,0 7.5305,3.3586 7.5305,7.5305 v 18.826 c 0,4.1719 -3.3586,7.5305 -7.5305,7.5305 -4.1719,0 -7.5305,-3.3586 -7.5305,-7.5305 v -18.826 c 0,-4.1719 3.3586,-7.5305 7.5305,-7.5305 z" />
        <path
           d="m 184.78,1031 v 61.177"
           fill="none"
           stroke-width="4.0248"
           id="path1714" />
      </g>
    </g>
    <path
       d="m 57.854501,303.7939 q 0,-0.49308 0.154696,-0.85076 0.164362,-0.36743 0.425408,-0.5608 0.299716,-0.23204 0.483408,-0.34807 0.580094,-0.38671 0.580094,-1.00545 v -0.29008 q 0,-0.43506 -0.280385,-0.58976 -0.270713,-0.15466 -0.937803,-0.15466 -0.676789,0 -1.84663,0.20299 v -0.70575 q 0.986171,-0.18369 2.030322,-0.18369 1.044183,0 1.498575,0.3094 0.464068,0.3094 0.464068,1.0538 v 0.48344 q 0,0.35772 -0.125691,0.64775 -0.125689,0.28034 -0.328722,0.45439 -0.386748,0.34805 -0.850816,0.61878 -0.203032,0.12571 -0.328735,0.31906 -0.125701,0.19336 -0.12569,0.41575 v 0.4157 h -0.812109 z m -0.164352,0.84114 h 1.121505 v 1.04418 h -1.121505 z"
       fill="#191919"
       stroke-width="0.241708"
       id="path1731"
       style="fill:#191919" />
    <g
       stroke="url(#a)"
       transform="matrix(0.45057841,0,0,0.45057841,96.621081,-136.31586)"
       id="g1755">
      <path
         d="m 63.236,968.83 -14.936,0.0307 0.04703,10.218 14.929,-0.0528 -0.03606,-10.2"
         fill="none"
         stroke="#191919"
         stroke-linecap="round"
         stroke-linejoin="round"
         stroke-width="1.4658"
         id="path1751" />
      <path
         id="rect1753"
         style="fill:#191919"
         d="m 53.769899,968.13 h 4.4112 c 0.7833,0 1.4139,0.6306 1.4139,1.4139 v 10e-5 c 0,0.78331 -0.6306,1.4139 -1.4139,1.4139 h -4.4112 c -0.783301,0 -1.4139,-0.63059 -1.4139,-1.4139 v -10e-5 c 0,-0.7833 0.630599,-1.4139 1.4139,-1.4139 z" />
    </g>
    <g
       stroke-width="0.08984"
       id="g1770"
       transform="matrix(0.13833236,0,0,0.13833236,129.22828,288.81078)"
       style="fill:#191919">
      <path
         d="m 45.884,22.231 -5.2188,-2.3655 -14.522,6.5826 c -0.67919,0.30815 -1.4006,0.46447 -2.1436,0.46447 -0.743,0 -1.4635,-0.1564 -2.1436,-0.46447 L 7.335,19.8655 2.1153,22.231 c -1.4869,0.67381 -1.4869,2.9198 0,3.5936 l 20.927,9.4863 c 0.61091,0.2767 1.3018,0.2767 1.9127,0 l 20.928,-9.4863 c 1.4869,-0.67381 1.4869,-2.9198 0,-3.5936 z m 0,11.482 -5.199,-2.3565 -14.542,6.5916 c -0.67919,0.30814 -1.4006,0.46447 -2.1436,0.46447 -0.743,0 -1.4635,-0.1564 -2.1436,-0.46447 L 7.3148,31.3565 2.1149,33.713 c -1.4869,0.67381 -1.4869,2.9198 0,3.5936 l 20.927,9.4863 c 0.61091,0.2767 1.3018,0.2767 1.9127,0 l 20.928,-9.4863 c 1.4869,-0.67381 1.4869,-2.9198 0,-3.5936 z"
         fill="#808080"
         fill-opacity="0.98853"
         id="path1766"
         style="fill:#191919" />
      <path
         d="m 2.1162,14.299 20.927,9.4934 c 0.61091,0.27762 1.3018,0.27762 1.9127,0 l 20.927,-9.4934 c 1.4869,-0.67471 1.4869,-2.9216 0,-3.5964 L 24.9569,1.2082 c -0.60734,-0.2776 -1.3054,-0.2776 -1.9127,0 l -20.928,9.4934 c -1.4869,0.67471 -1.4869,2.9225 0,3.5971 z"
         fill="#191919"
         fill-opacity="0.99771"
         id="path1768"
         style="fill:#191919" />
    </g>
    <g
       id="g1856"
       transform="matrix(0.28924306,0,0,0.28924306,107.67303,288.69419)">
      <path
         id="rect1781"
         style="fill:#191919;fill-rule:evenodd;stroke:#191919;stroke-linecap:round;paint-order:markers fill stroke"
         d="M 2.2927001,11.032 H 22.419701 V 23.217 H 2.2927001 Z" />
      <path
         d="m 21.092,0.89753 -19.396,5.373 0.59766,2.1543 v 2.6074 h 20.127 v -2.7109 h -17.977 l 17.373,-4.8105 z"
         style="fill:#191919;fill-rule:evenodd;stroke:#191919;stroke-linecap:round;paint-order:markers fill stroke"
         id="path1783" />
      <path
         id="circle1811"
         style="fill:#191919;fill-rule:evenodd;paint-order:markers fill stroke"
         d="m 3.8829999,7.1599002 a 0.5,0.5 0 0 1 -0.5,0.5 0.5,0.5 0 0 1 -0.5,-0.5 0.5,0.5 0 0 1 0.5,-0.5 0.5,0.5 0 0 1 0.5,0.5 z" />
    </g>
    <path
       d="m 37.508002,301.69688 v 0.39819 c 0,0.082 -0.06721,0.14931 -0.149335,0.14931 h -0.696915 v 0.69682 c 0,0.0819 -0.06721,0.14934 -0.149333,0.14934 H 36.11419 c -0.08209,0 -0.149344,-0.0673 -0.149344,-0.14934 v -0.69682 h -0.696907 c -0.08213,0 -0.149333,-0.0673 -0.149333,-0.14931 v -0.39819 c 0,-0.0819 0.0672,-0.14929 0.149333,-0.14929 h 0.696907 v -0.69678 c 0,-0.0819 0.06721,-0.14933 0.149344,-0.14933 h 0.398229 c 0.08209,0 0.149333,0.0673 0.149333,0.14933 v 0.69678 h 0.696915 c 0.08209,0 0.149335,0.0673 0.149335,0.14929 z m 2.501395,3.5425 -0.352192,0.35212 c -0.116978,0.11697 -0.30614,0.11697 -0.421871,0 l -1.241973,-1.24054 c -0.05603,-0.0559 -0.08712,-0.13191 -0.08712,-0.21155 v -0.20283 c -0.439277,0.34345 -0.991841,0.5475 -1.592918,0.5475 -1.429881,0 -2.588483,-1.15844 -2.588483,-2.58811 0,-1.42969 1.158602,-2.5881 2.588483,-2.5881 1.429869,0 2.588479,1.15841 2.588479,2.5881 0,0.60099 -0.204094,1.15347 -0.547564,1.59269 h 0.202849 c 0.07969,0 0.155563,0.0309 0.211559,0.0874 l 1.240737,1.24057 c 0.115729,0.11696 0.115729,0.30611 0,0.42307 z m -2.003592,-3.34351 c 0,-0.93571 -0.756626,-1.69225 -1.69249,-1.69225 -0.935833,0 -1.692489,0.75651 -1.692489,1.69225 0,0.93569 0.756628,1.69222 1.692489,1.69222 0.935843,0 1.69249,-0.75651 1.69249,-1.69222 z"
       fill="#191919"
       style="stroke-width:0.0124436"
       id="path1858" />
    <path
       d="m 124.45069,291.83883 -4.37453,-2.58624 c -0.35546,-0.21003 -0.89978,-0.006 -0.89978,0.51326 v 5.17138 c 0,0.46605 0.50583,0.74691 0.89978,0.51327 l 4.37453,-2.585 c 0.39023,-0.22992 0.39146,-0.79665 0,-1.02655 z"
       style="fill:#191919;stroke-width:0.0124279"
       id="path1867" />
    <path
       d="m 89.115687,303.09711 c -0.453879,0.0291 -0.865756,0.20204 -1.09947,0.81791 -0.0266,0.0704 -0.09054,0.11289 -0.165039,0.11289 -0.125692,0 -0.514257,-0.313 -0.625038,-0.38859 1.19e-4,0.93158 0.429193,1.7504 1.448126,1.7504 0.858157,0 1.448006,-0.49513 1.448006,-1.35964 0,-0.0351 -0.0075,-0.0688 -0.01096,-0.10331 z m 3.290507,-3.49961 c -0.171498,0 -0.332237,0.0758 -0.454884,0.18608 -2.312392,2.06569 -2.553026,2.1142 -2.553026,2.72226 0,0.15497 0.03677,0.30272 0.09873,0.4378 l 0.721959,0.6016 c 0.08156,0.0205 0.165623,0.034 0.253301,0.034 0.702607,0 1.109855,-0.51436 2.388761,-2.90127 0.08342,-0.16218 0.157257,-0.33741 0.157257,-0.52002 0,-0.32709 -0.294244,-0.56058 -0.61223,-0.56058 z"
       fill="#191919"
       stroke-width="0.0427563"
       id="path1876" />
    <path
       d="m 103.20183,291.54059 h -2.04537 v -2.04537 c 0,-0.251 -0.20353,-0.45452 -0.45452,-0.45452 h -0.45452 c -0.250995,0 -0.454525,0.20352 -0.454525,0.45452 v 2.04537 h -2.045359 c -0.250982,0 -0.454521,0.20356 -0.454521,0.45451 v 0.45455 c 0,0.25097 0.203539,0.45451 0.454521,0.45451 h 2.045359 v 2.04537 c 0,0.25099 0.20355,0.45452 0.454525,0.45452 h 0.45452 c 0.25099,0 0.45452,-0.20355 0.45452,-0.45452 v -2.04537 h 2.04537 c 0.25098,0 0.45453,-0.20354 0.45453,-0.45451 v -0.45455 c 0,-0.25096 -0.20356,-0.45451 -0.45453,-0.45451 z"
       style="fill:#191919;stroke-width:0.0142039"
       id="path1885" />
    <path
       d="m 29.656058,301.85154 c 0.207511,0.78 0.08996,1.57026 -0.269468,2.22668 l 0.532786,0.30763 c 0.225545,0.1302 0.181058,0.46813 -0.07052,0.53556 l -1.577243,0.42261 c -0.15595,0.0419 -0.316239,-0.0509 -0.358027,-0.20672 l -0.422608,-1.57724 c -0.06743,-0.25156 0.202979,-0.45905 0.428545,-0.32882 l 0.622802,0.35961 c 0.242705,-0.45425 0.30514,-0.9746 0.175692,-1.47495 -0.281635,-1.08945 -1.406896,-1.77002 -2.527589,-1.45973 -1.063093,0.29447 -1.725679,1.39785 -1.429917,2.50161 0.129651,0.48385 0.424898,0.89491 0.837659,1.17054 0.0639,0.0429 0.08353,0.12778 0.04509,0.19435 l -0.341609,0.59165 c -0.04197,0.0729 -0.136173,0.0951 -0.206628,0.0494 -0.605909,-0.39184 -1.074207,-1.00145 -1.275729,-1.75333 -0.431787,-1.61157 0.524531,-3.26779 2.135934,-3.69965 1.609596,-0.43139 3.2726,0.53086 3.700925,2.14132 z"
       stroke-width="0.01218"
       fill="#191919"
       id="path1894" />
    <path
       d="m 15.062996,302.48493 c 0.701503,0 1.270047,-0.56852 1.270047,-1.27006 0,-0.70146 -0.568544,-1.27002 -1.270047,-1.27002 -0.701502,0 -1.270047,0.56856 -1.270047,1.27002 0,0.70154 0.568545,1.27006 1.270047,1.27006 z m 0.889034,0.31753 h -0.165706 c -0.220273,0.10124 -0.465355,0.15875 -0.723328,0.15875 -0.257972,0 -0.50206,-0.0573 -0.723327,-0.15875 h -0.16571 c -0.73622,0 -1.333545,0.59732 -1.333545,1.33353 v 0.41276 c 0,0.26296 0.213331,0.47629 0.476261,0.47629 h 2.727585 c -0.02381,-0.0676 -0.03374,-0.13892 -0.02581,-0.21135 l 0.06746,-0.60429 0.0119,-0.11012 0.845374,-0.84537 c -0.243089,-0.27487 -0.595333,-0.45146 -0.991227,-0.45146 z m 0.449485,1.44171 -0.06746,0.60524 c -0.01092,0.10125 0.07442,0.18655 0.174622,0.17465 l 0.604269,-0.0676 1.368275,-1.36828 -0.711412,-0.71142 z m 2.719712,-1.63124 -0.376053,-0.37606 c -0.09228,-0.0924 -0.243095,-0.0924 -0.335374,0 l -0.415746,0.41572 0.712412,0.71146 0.414746,-0.41477 c 0.09227,-0.0934 0.09227,-0.24309 0,-0.33636 z"
       fill="#191919"
       stroke-width="0.00992221"
       id="path1903" />
    <path
       d="m 72.083291,304.2315 -1.45706,-1.45705 c -0.287421,-0.28745 -0.716704,-0.34343 -1.062613,-0.17294 l -1.326409,-1.32641 v -0.77273 l -1.592685,-1.1945 -0.796338,0.79637 1.194512,1.59264 h 0.772697 l 1.326407,1.32644 c -0.169221,0.34589 -0.11447,0.77517 0.172955,1.06259 l 1.457054,1.45706 c 0.181667,0.18168 0.475324,0.18168 0.655741,0 l 0.655739,-0.65573 c 0.18042,-0.18166 0.18042,-0.47531 0,-0.65574 z m -2.107817,-2.12398 c 0.352136,0 0.683105,0.13685 0.931968,0.38573 l 0.241387,0.24138 c 0.196595,-0.0858 0.383243,-0.2053 0.545001,-0.36705 0.461626,-0.46165 0.618403,-1.11115 0.471576,-1.70097 -0.02734,-0.11196 -0.167975,-0.15053 -0.2501,-0.0685 l -0.925739,0.92575 -0.844872,-0.14058 -0.140609,-0.8449 0.925751,-0.92571 c 0.08209,-0.0819 0.04228,-0.22275 -0.07093,-0.25138 -0.589792,-0.14557 -1.239313,0.0113 -1.699692,0.4716 -0.354621,0.35459 -0.521358,0.82248 -0.512646,1.28906 l 1.021558,1.02157 c 0.100816,-0.0237 0.205299,-0.0361 0.307335,-0.0361 z m -1.292815,1.02031 -0.705509,-0.70552 -1.896279,1.89753 c -0.311078,0.31109 -0.311078,0.81503 0,1.12609 0.311067,0.31107 0.814999,0.31107 1.126067,0 l 1.537938,-1.53795 c -0.09456,-0.24761 -0.123184,-0.51762 -0.06218,-0.78015 z m -2.038135,2.05307 c -0.164242,0 -0.298623,-0.1344 -0.298623,-0.29863 0,-0.16549 0.133133,-0.29862 0.298623,-0.29862 0.16549,0 0.298634,0.13313 0.298634,0.29862 0,0.16423 -0.133144,0.29863 -0.298634,0.29863 z"
       fill="#191919"
       stroke-width="0.012443"
       id="path1912" />
    <path
       d="m 47.760221,299.46034 c -0.116535,0 -0.238375,0.0392 -0.327678,0.12822 l -2.749645,2.74964 c -0.178594,0.17861 -0.178594,0.47681 0,0.65541 l 1.980355,1.98034 0.455899,-0.24222 c -0.0078,-0.0766 -0.01426,-0.14926 -0.01426,-0.22793 0,-0.0787 0.0068,-0.15133 0.01426,-0.22797 l -0.840592,-0.4559 c 0.04445,-0.20284 0.104157,-0.39774 0.185213,-0.5841 l 0.954575,0.12822 c 0.07727,-0.13219 0.169285,-0.2569 0.270686,-0.37039 l -0.413164,-0.86909 c 0.152982,-0.13602 0.307229,-0.2655 0.484398,-0.37041 l 0.698081,0.66961 c 0.139377,-0.0622 0.28918,-0.10905 0.441658,-0.14246 l 0.185214,-0.95454 c 0.0982,-0.008 0.198589,-0.0145 0.299182,-0.0145 0.100604,0 0.200971,0.005 0.299182,0.0145 l 0.185213,0.95454 c 0.152482,0.0333 0.302292,0.08 0.441659,0.14246 l 0.313438,-0.29917 -2.535961,-2.53597 c -0.08935,-0.0893 -0.211149,-0.12821 -0.327691,-0.12821 z m 1.624161,3.67575 c -0.755335,0 -1.367715,0.61235 -1.367715,1.36771 0,0.36323 0.13941,0.69537 0.370425,0.94029 l 1.937597,-1.93761 c -0.244916,-0.231 -0.577096,-0.37039 -0.940307,-0.37039 z m -1.96608,2.50747 -0.07119,0.0144 0.08545,0.0853 c 0.02757,0.0275 0.06778,0.0379 0.0997,0.0568 -0.03827,-0.0537 -0.08077,-0.0998 -0.113969,-0.1567 z"
       fill="#191919"
       stroke="#191919"
       stroke-width="0.226093"
       id="path1921"
       style="fill:#191919" />
    <path
       d="m 141.5453,291.52067 v 0.63633 h 3.18166 v -0.63633 c 0,-0.35098 0.28536,-0.63632 0.63634,-0.63632 h 0.31815 c 0,-0.52699 -0.4275,-0.95453 -0.95449,-0.95453 h -3.18166 c -0.52699,0 -0.95451,0.42754 -0.95451,0.95453 h 0.31817 c 0.35095,0 0.63634,0.28533 0.63634,0.63632 z m 4.13615,-0.31816 h -0.31815 c -0.17598,0 -0.31817,0.14216 -0.31817,0.31816 v 0.95449 h -3.81802 v -0.95449 c 0,-0.176 -0.14218,-0.31816 -0.31815,-0.31816 h -0.31817 c -0.35098,0 -0.63634,0.28534 -0.63634,0.63631 0,0.23467 0.12925,0.43749 0.31817,0.54787 v 1.20205 c 0,0.0875 0.0717,0.1591 0.15908,0.1591 h 0.63633 c 0.0873,0 0.15908,-0.0717 0.15908,-0.1591 v -0.15908 h 3.81802 v 0.15908 c 0,0.0875 0.0717,0.1591 0.15908,0.1591 h 0.63632 c 0.0875,0 0.1591,-0.0717 0.1591,-0.1591 v -1.20205 c 0.1889,-0.11037 0.31817,-0.31318 0.31817,-0.54787 0,-0.35096 -0.28537,-0.63631 -0.63635,-0.63631 z"
       fill="#191919"
       stroke-width="0.00994273"
       id="path1930" />
    <path
       d="m 155.31579,289.9802 h -3.1822 c -0.87909,0 -1.59106,0.71201 -1.59106,1.59105 0,0.87907 0.71203,1.59104 1.59106,1.59104 0.44549,0 0.84722,-0.18296 1.13562,-0.47731 h 0.90989 c 0.2884,0.29435 0.69112,0.47731 1.1356,0.47731 0.87908,0 1.59106,-0.71202 1.59106,-1.59104 0,-0.87908 -0.71102,-1.59105 -1.59005,-1.59105 z m -2.22753,1.79002 c 0,0.0658 -0.0537,0.11932 -0.11931,0.11932 h -0.5171 v 0.5171 c 0,0.0659 -0.0537,0.11937 -0.11934,0.11937 h -0.39776 c -0.0659,0 -0.11936,-0.0537 -0.11936,-0.11937 v -0.5171 h -0.51693 c -0.0658,0 -0.11934,-0.0537 -0.11934,-0.11932 v -0.39778 c 0,-0.0657 0.0537,-0.11931 0.11934,-0.11931 h 0.51706 V 290.736 c 0,-0.0657 0.0537,-0.11934 0.11933,-0.11934 h 0.39776 c 0.0659,0 0.11935,0.0537 0.11935,0.11934 v 0.51713 h 0.51712 c 0.0656,0 0.11931,0.0537 0.11931,0.11931 z m 1.82981,0.67621 c -0.26352,0 -0.47733,-0.21381 -0.47733,-0.47734 0,-0.26352 0.21381,-0.47731 0.47733,-0.47731 0.26352,0 0.47733,0.21379 0.47733,0.47731 0,0.26353 -0.21381,0.47734 -0.47733,0.47734 z m 0.79556,-0.79555 c -0.26354,0 -0.47733,-0.21378 -0.47733,-0.47731 0,-0.26355 0.21379,-0.47735 0.47733,-0.47735 0.26351,0 0.47731,0.2138 0.47731,0.47735 0,0.26353 -0.2138,0.47731 -0.47731,0.47731 z"
       fill="#191919"
       stroke-width="0.00994485"
       id="path1939" />
    <path
       d="m 81.83521,291.3242 v 0.63637 h 0.318165 v 0.63631 H 81.83521 v 0.63636 h -4.772517 v -1.90904 z m 0.159083,-0.63632 h -5.09068 c -0.263583,0 -0.47725,0.21366 -0.47725,0.47724 v 2.2272 c 0,0.26358 0.213667,0.47724 0.47725,0.47724 h 5.09068 c 0.263581,0 0.477247,-0.21366 0.477247,-0.47724 v -0.15908 h 0.07959 c 0.131785,0 0.238622,-0.10681 0.238622,-0.23865 v -1.43173 c 0,-0.13182 -0.106804,-0.23866 -0.238622,-0.23866 h -0.07959 v -0.15908 c 0,-0.26358 -0.213666,-0.47724 -0.477247,-0.47724 z m -1.283658,0.95453 h -3.329776 v 1.27265 h 3.329776 z"
       fill="#191919"
       stroke-width="0.00994273"
       id="path1948" />
    <path
       fill="#191919"
       d="m 150.80624,300.34973 v -0.34728 c 0,-0.1649 0.13275,-0.29766 0.29765,-0.29766 h 1.38909 l 0.1166,-0.23189 c 0.0496,-0.10171 0.15254,-0.16498 0.26541,-0.16498 h 1.4176 c 0.11285,0 0.21581,0.0635 0.26667,0.16498 l 0.11632,0.23188 h 1.38908 c 0.16496,0 0.29766,0.13276 0.29766,0.29767 v 0.34724 c 0,0.0816 -0.0671,0.14885 -0.14884,0.14885 h -5.25846 c -0.0817,2e-5 -0.14893,-0.0671 -0.14893,-0.1488 z m 5.15946,0.69455 v 4.01845 c 0,0.32849 -0.26671,0.59519 -0.59516,0.59519 h -3.57223 c -0.32854,0 -0.59518,-0.2667 -0.59518,-0.59519 v -4.01845 c 0,-0.0817 0.0671,-0.14894 0.14881,-0.14894 h 4.46499 c 0.0815,0 0.14866,0.0671 0.14866,0.14883 z m -3.37363,0.84338 c 0,-0.10915 -0.0895,-0.19846 -0.19844,-0.19846 -0.10915,0 -0.19846,0.0895 -0.19846,0.19846 v 2.77816 c 0,0.10916 0.0895,0.19843 0.19846,0.19843 0.10914,0 0.19844,-0.0895 0.19844,-0.19843 z m 1.19065,0 c 0,-0.10915 -0.0896,-0.19846 -0.1986,-0.19846 -0.10914,0 -0.19843,0.0894 -0.19843,0.19846 v 2.77816 c 0,0.10916 0.0895,0.19843 0.19843,0.19843 0.10914,0 0.19844,-0.0895 0.19844,-0.19843 z m 1.19063,0 c 0,-0.10916 -0.0895,-0.19846 -0.19843,-0.19846 -0.10913,0 -0.19845,0.0894 -0.19845,0.19846 v 2.77816 c 0,0.10916 0.0895,0.19843 0.19845,0.19843 0.10912,0 0.19843,-0.0895 0.19843,-0.19843 z"
       stroke-width="0.0468759"
       id="path1957" />
    <path
       d="m 142.6468,300.49856 0.19841,-0.39685 0.3969,-0.19843 -0.3969,-0.19843 -0.19841,-0.39689 -0.19845,0.39689 -0.39684,0.19843 0.39684,0.19843 z m -1.786,0.79377 0.33058,-0.66145 0.66159,-0.33077 -0.66159,-0.33073 -0.33058,-0.66145 -0.33062,0.66145 -0.66158,0.33073 0.66158,0.33077 z m 4.36558,1.58748 -0.33064,0.66141 -0.66157,0.33078 0.66157,0.33079 0.33064,0.66141 0.33059,-0.66141 0.66157,-0.33079 -0.66157,-0.33078 z m 0.87583,-2.40328 -1.05235,-1.05231 c -0.0772,-0.0775 -0.17895,-0.11635 -0.28052,-0.11635 -0.10156,0 -0.20311,0.0389 -0.28066,0.11635 l -4.50391,4.50391 c -0.15506,0.15504 -0.15506,0.40628 0,0.56121 l 1.05231,1.05233 c 0.0774,0.0774 0.1791,0.1162 0.28053,0.1162 0.10156,0 0.20317,-0.0389 0.28067,-0.1162 l 4.50393,-4.50393 c 0.15503,-0.15481 0.15503,-0.40616 0,-0.56111 z m -1.77563,1.35471 -0.63137,-0.6314 1.07401,-1.07403 0.63139,0.63139 z"
       fill="#191919"
       stroke-width="0.0124025"
       id="path1966" />
    <path
       d="m 97.622407,302.8919 c -0.109512,0 -0.199102,0.0898 -0.199102,0.19912 v 0.3982 c 0,0.10951 0.08964,0.19911 0.199102,0.19911 h 1.393737 v -0.79643 z m 6.085203,-2.27725 -1.21823,-1.21953 c -0.0559,-0.0559 -0.13192,-0.0874 -0.21157,-0.0874 h -0.0758 v 1.59282 h 1.59286 v -0.0759 c 0,-0.0783 -0.0309,-0.15432 -0.0873,-0.2103 z m -1.90392,0.38576 v -1.69242 h -2.488825 c -0.165501,0 -0.298632,0.13314 -0.298632,0.29865 v 3.28529 h 1.592817 v -0.81139 c 0,-0.17792 0.21529,-0.26627 0.34096,-0.1406 l 1.18964,1.20089 c 0.0819,0.0832 0.0819,0.2165 0,0.29863 l -1.19087,1.1996 c -0.12569,0.12568 -0.34097,0.0375 -0.34097,-0.14062 v -0.81011 h -1.591577 v 1.6924 c 0,0.16551 0.133143,0.29865 0.298632,0.29865 h 4.181355 c 0.16549,0 0.29864,-0.13315 0.29864,-0.29865 v -4.0817 h -1.69243 c -0.16426,0 -0.29862,-0.13442 -0.29862,-0.29865 z"
       fill="#191919"
       stroke-width="0.0124442"
       id="path1975" />
    <path
       d="m 114.84302,302.92549 -0.86659,1.48558 a 0.76575742,0.76575742 0 0 1 -0.66146,0.37995 h -4.78607 c -0.22164,0 -0.35973,-0.24041 -0.24804,-0.43188 l 0.86661,-1.4856 a 0.76578875,0.76578875 0 0 1 0.66151,-0.37994 h 4.7857 c 0.22164,0 0.35973,0.24042 0.24802,0.43189 z m -5.03383,-0.81485 h 3.92449 v -0.57445 c 0,-0.31718 -0.25714,-0.57431 -0.57435,-0.57431 h -1.91447 l -0.76584,-0.76581 h -1.91451 c -0.3172,0 -0.57432,0.25717 -0.57432,0.57438 v 3.32706 l 0.82655,-1.41697 c 0.20507,-0.35153 0.58529,-0.5699 0.99224,-0.5699 z"
       fill="#191919"
       stroke-width="0.0119653"
       id="path1984" />
    <g
       fill="none"
       stroke="#191919"
       stroke-linecap="round"
       stroke-width="1.5"
       id="g2011"
       transform="matrix(0.30725608,0,0,0.30725608,65.187037,288.64141)">
      <path
         d="m 8.8106,8.7691 h 6.3785 v 6.3785 H 8.8106 Z"
         opacity="0.333"
         id="path1993" />
      <path
         d="M 2.4167,2.4359 H 8.7952 V 8.8144 H 2.4167 Z"
         id="path1995" />
      <path
         d="m 8.8106,2.4359 h 6.3785 V 8.8144 H 8.8106 Z"
         id="path1997" />
      <path
         d="m 15.205,2.4359 h 6.3785 V 8.8144 H 15.205 Z"
         id="path1999" />
      <path
         d="m 2.4167,8.7691 h 6.3785 v 6.3785 H 2.4167 Z"
         id="path2001" />
      <path
         d="m 15.205,8.7691 h 6.3785 v 6.3785 H 15.205 Z"
         id="path2003" />
      <path
         d="m 2.4167,15.186 h 6.3785 v 6.3785 H 2.4167 Z"
         id="path2005" />
      <path
         d="m 8.8106,15.186 h 6.3785 v 6.3785 H 8.8106 Z"
         id="path2007" />
      <path
         d="m 15.205,15.186 h 6.3785 v 6.3785 H 15.205 Z"
         id="path2009" />
    </g>
    <g
       id="g2047"
       transform="matrix(0.28960698,0,0,0.28960698,76.342915,299.01824)">
      <path
         d="m 18.104,18.836 h -1.7113 c -0.28237,0 -0.5134,-0.23103 -0.5134,-0.5134 v -7.8953 h -2.8665 c -0.45778,0 -0.68454,-0.55191 -0.36366,-0.87706 l 4.236,-4.2362 c 0.20108,-0.20108 0.52625,-0.20108 0.72733,0 l 4.2356,4.2356 c 0.3252,0.3252 0.0941,0.8767 -0.3637,0.8767 h -2.8665 v 7.8953 c 0,0.28237 -0.23104,0.5134 -0.5134,0.5134 z"
         stroke-width="0.042784"
         fill="#191919"
         id="path2029" />
      <g
         transform="rotate(90,12,12)"
         stroke="#191919"
         stroke-linecap="round"
         stroke-linejoin="round"
         stroke-width="1.0268"
         id="g2035">
        <path
           d="m 2.7329,13.263 h 8.2233 v 8.2233 H 2.7329 Z"
           fill="#191919"
           fill-opacity="0.78431"
           id="path2031"
           style="fill:#191919;fill-opacity:1" />
        <path
           d="m 13.044,13.263 h 8.2233 v 8.2233 H 13.044 Z"
           fill="#191919"
           id="path2033" />
      </g>
    </g>
    <path
       d="m 131.86294,299.37032 c -1.23282,0.2406 -2.22624,1.23155 -2.46932,2.46062 -0.4589,2.31929 1.63341,4.0481 3.20963,3.80389 0.51094,-0.0793 0.76147,-0.67716 0.52708,-1.13728 -0.2865,-0.56306 0.1228,-1.22041 0.75529,-1.22041 h 0.98849 c 0.444,0 0.80368,-0.36709 0.80493,-0.80987 -0.006,-1.9547 -1.78464,-3.49249 -3.81633,-3.09703 z m -1.34318,3.90694 c -0.21953,0 -0.39687,-0.17736 -0.39687,-0.39686 0,-0.21954 0.17735,-0.39689 0.39687,-0.39689 0.21952,0 0.39689,0.17735 0.39689,0.39689 0,0.21951 -0.17737,0.39686 -0.39689,0.39686 z m 0.39689,-1.58751 c -0.21955,0 -0.39689,-0.17731 -0.39689,-0.39687 0,-0.2195 0.17735,-0.39687 0.39689,-0.39687 0.2195,0 0.39685,0.17738 0.39685,0.39687 0,0.21956 -0.17736,0.39687 -0.39685,0.39687 z m 1.58759,-0.79382 c -0.21955,0 -0.39687,-0.17737 -0.39687,-0.39692 0,-0.2195 0.17732,-0.39683 0.39687,-0.39683 0.21949,0 0.39685,0.17734 0.39685,0.39683 0,0.21956 -0.17736,0.39692 -0.39685,0.39692 z m 1.5875,0.79373 c -0.21952,0 -0.39688,-0.17731 -0.39688,-0.39687 0,-0.2195 0.17737,-0.39686 0.39688,-0.39686 0.21955,0 0.39688,0.17737 0.39688,0.39686 0,0.21956 -0.17734,0.39687 -0.39688,0.39687 z"
       fill="#191919"
       stroke-width="0.0124024"
       id="path2049" />
    <path
       d="m 61.004645,289.12909 h -3.968448 c -0.328919,0 -0.595417,0.26653 -0.595417,0.59529 v 0.59529 h -0.595287 c -0.328765,0 -0.595283,0.26652 -0.595283,0.59529 v 3.96844 c 0,0.32873 0.266518,0.59513 0.595283,0.59513 h 3.968451 c 0.328767,0 0.59528,-0.26651 0.59528,-0.59528 v -0.59543 h 0.595287 c 0.329316,0 0.595699,-0.2664 0.595699,-0.59541 v -3.96844 c 0,-0.32862 -0.266402,-0.59514 -0.59513,-0.59514 z m -1.265013,5.75449 h -3.819891 a 0.07440923,0.07440923 0 0 1 -0.07432,-0.0745 v -3.81989 a 0.07440923,0.07440923 0 0 1 0.07441,-0.0743 h 0.520872 v 2.77797 c 0,0.32878 0.266519,0.59528 0.595285,0.59528 h 2.777979 v 0.52087 a 0.07440923,0.07440923 0 0 1 -0.07441,0.0744 z m 1.190549,-1.19054 h -3.819889 a 0.07440923,0.07440923 0 0 1 -0.07431,-0.0745 v -3.81991 a 0.07440923,0.07440923 0 0 1 0.07441,-0.0743 h 3.819891 a 0.07440923,0.07440923 0 0 1 0.07446,0.0744 v 3.81955 a 0.07440923,0.07440923 0 0 1 -0.07441,0.0744 z"
       fill="#191919"
       stroke-width="0.0124015"
       id="path2058" />
    <g
       id="g2097"
       transform="matrix(1.0909097,0,0,1.0909097,22.86966,288.49469)">
      <path
         d="M 0.3616,0.91 H 5.9884 V 1.71383 H 0.3616 Z"
         style="fill:#191919;stroke:#191919;stroke-width:0.19403;stroke-linecap:round;stroke-linejoin:round;stroke-opacity:0.88303"
         id="path2067" />
      <g
         stroke-width="0.29333"
         id="g2081">
        <path
           d="M 2.970138,1.3690675 H 5.5478927 V 5.3882752 H 2.970138 Z"
           fill="none"
           stroke="#191919"
           stroke-linecap="round"
           stroke-linejoin="round"
           stroke-opacity="0.88303"
           id="path2069" />
        <g
           fill="#191919"
           id="g2079">
          <path
             d="M 3.4344207,2.2285244 H 5.0836393 V 2.4502672 H 3.4344207 Z"
             id="path2071" />
          <path
             d="M 3.4344207,3.0117155 H 5.0836393 V 3.2334583 H 3.4344207 Z"
             id="path2073" />
          <path
             d="M 3.4344207,3.7919733 H 5.0836393 V 4.0137161 H 3.4344207 Z"
             id="path2075" />
          <path
             d="M 3.4344207,4.5751644 H 5.0836393 V 4.7969072 H 3.4344207 Z"
             id="path2077" />
        </g>
      </g>
    </g>
    <path
       d="m 15.838507,288.91044 c -1.757624,0 -3.181675,1.42408 -3.181675,3.18168 0,1.7578 1.424069,3.18167 3.181675,3.18167 1.75779,0 3.181673,-1.42395 3.181673,-3.18167 0,-1.75762 -1.42395,-3.18168 -3.181673,-3.18168 z m 0,5.74762 c -1.417637,0 -2.565936,-1.14831 -2.565936,-2.56594 0,-1.41764 1.148234,-2.56594 2.565936,-2.56594 1.417701,0 2.565935,1.14823 2.565935,2.56594 0,1.4177 -1.148234,2.56594 -2.565935,2.56594 z m 0.792837,-1.33937 -1.089204,-0.79157 c -0.03979,-0.0294 -0.06289,-0.0757 -0.06289,-0.12445 v -2.10642 c 0,-0.0846 0.06927,-0.15396 0.153954,-0.15396 h 0.410552 c 0.08466,0 0.153954,0.0694 0.153954,0.15396 v 1.8179 l 0.856992,0.62351 c 0.06927,0.05 0.0834,0.14623 0.03336,0.21551 l -0.240937,0.33234 c -0.05006,0.0682 -0.146252,0.0833 -0.215533,0.0332 z"
       fill="#191919"
       stroke-width="0.0128295"
       id="path2099" />
    <g
       fill="none"
       stroke="#191919"
       stroke-width="1.6"
       transform="matrix(0.39691321,0,0,0.39691321,1.6408868,163.07713)"
       id="g2151">
      <g
         filter="url(#a)"
         transform="matrix(0.88972,0,0,0.88972,9.825,35.764)"
         id="g2129">
        <path
           d="m 89.022,316.99 v 3.2"
           id="path2111" />
        <path
           d="m 94.842,319.18 -2.2627,2.2627"
           id="path2113" />
        <path
           d="m 97.23,324.96 h -3.2"
           id="path2115" />
        <path
           d="m 94.791,330.74 -2.2627,-2.2627"
           id="path2117" />
        <path
           d="m 89.013,333.18 2e-6,-3.2"
           id="path2119" />
        <path
           d="m 83.21,330.84 2.2627,-2.2627"
           id="path2121" />
        <path
           d="m 80.747,324.96 h 3.2"
           id="path2123" />
        <path
           d="m 83.21,319.18 2.2627,2.2627"
           id="path2125" />
        <path
           id="circle2127"
           style="stroke-linejoin:round"
           d="M 91.854,325 A 2.8540001,2.8540001 0 0 1 89,327.854 2.8540001,2.8540001 0 0 1 86.146,325 2.8540001,2.8540001 0 0 1 89,322.146 2.8540001,2.8540001 0 0 1 91.854,325 Z" />
      </g>
      <g
         transform="matrix(0.88972,0,0,0.88972,9.825,35.764)"
         id="g2147">
        <path
           d="m 89.022,316.99 v 3.2"
           id="path2131" />
        <path
           d="m 94.842,319.18 -2.2627,2.2627"
           id="path2133" />
        <path
           d="m 97.23,324.96 h -3.2"
           id="path2135" />
        <path
           d="m 94.791,330.74 -2.2627,-2.2627"
           id="path2137" />
        <path
           d="m 89.013,333.18 2e-6,-3.2"
           id="path2139" />
        <path
           d="m 83.21,330.84 2.2627,-2.2627"
           id="path2141" />
        <path
           d="m 80.747,324.96 h 3.2"
           id="path2143" />
        <path
           d="m 83.21,319.18 2.2627,2.2627"
           id="path2145" />
      </g>
      <path
         id="circle2149"
         style="stroke-width:1.42355;stroke-linejoin:round"
         d="m 91.549339,324.923 a 2.5392609,2.5392609 0 0 1 -2.539261,2.53927 2.5392609,2.5392609 0 0 1 -2.53926,-2.53927 2.5392609,2.5392609 0 0 1 2.53926,-2.53926 2.5392609,2.5392609 0 0 1 2.539261,2.53926 z" />
    </g>
    <g
       style="enable-background:new"
       id="g2200"
       transform="matrix(0.13804197,0,0,0.13804197,44.494588,289.17941)">
      <g
         stroke="#191919"
         stroke-linejoin="round"
         transform="translate(0,-1030.4)"
         id="g2189">
        <path
           id="circle2185"
           style="fill:none;stroke-width:3.5385;stroke-linecap:round"
           d="M 45.231001,1054.4 A 21.231001,21.231001 0 0 1 24,1075.631 21.231001,21.231001 0 0 1 2.7689991,1054.4 21.231001,21.231001 0 0 1 24,1033.169 21.231001,21.231001 0 0 1 45.231001,1054.4 Z" />
        <path
           d="m 3.3422,1060.2 c 3.4526,-2.5448 6.6757,-5.4007 9.6176,-8.5218 1.578,-1.6741 3.1289,-3.4659 5.189,-4.4899 1.4313,-0.7114 3.05,-1.0115 4.6478,-0.9675 1.5978,0.044 3.1758,0.4241 4.662,1.0125 3.5619,1.4102 6.6223,4.0531 8.5361,7.3718 -1.5066,-0.6096 -3.1701,-0.8266 -4.7827,-0.6239 -1.6126,0.2026 -3.1707,0.8245 -4.4796,1.788 -0.78038,0.5744 -1.4776,1.2744 -1.98,2.103 -0.63727,1.0511 -0.94368,2.288 -0.94708,3.5171 -0.0034,1.2292 0.2891,2.4502 0.77874,3.5776 1.0166,2.3408 2.9082,4.2894 5.2179,5.375 2.3097,1.0856 5.017,1.2986 7.468,0.5877 l -4.7973,2.3371 c -1.947,0.9485 -3.9764,1.8037 -6.1285,2.0464 -2.1521,0.2427 -4.3327,-0.083 -6.428,-0.6317 -4.0951,-1.0714 -8.0521,-2.9327 -11.118,-5.8515 -2.4796,-2.3607 -4.324,-5.3824 -5.2903,-8.6669"
           fill="url(#a)"
           fill-rule="evenodd"
           stroke-width="3.603"
           id="path2187" />
      </g>
    </g>
    <path
       d="m 166.00252,290.52333 h -1.43426 l 0.52947,-1.61318 c 0.0498,-0.18891 -0.0934,-0.37536 -0.28834,-0.37536 h -1.78968 c -0.14917,0 -0.27593,0.11062 -0.29581,0.25852 l -0.39771,2.98281 c -0.0237,0.17898 0.11559,0.33806 0.29581,0.33806 h 1.47523 l -0.57292,2.41734 c -0.0448,0.1889 0.0994,0.36663 0.28957,0.36663 0.10443,0 0.20382,-0.0546 0.25851,-0.14915 l 2.1874,-3.77822 c 0.11558,-0.19761 -0.0272,-0.44745 -0.25727,-0.44745 z"
       fill="#191919"
       stroke-width="0.0124285"
       id="path2202" />
    <g
       fill-rule="evenodd"
       stroke="#000000"
       stroke-linejoin="round"
       id="g2551"
       transform="matrix(1.1560685,0,0,1.1560685,160.46227,298.1028)"
       style="fill:#191919">
      <path
         d="m 0.56094,5.6885 h 5.2282 L 4.76954,4.3156 h -3.189 z"
         fill="#808080"
         stroke-width="0.26458"
         id="path2547"
         style="fill:#191919;stroke:#191919" />
      <path
         d="M 3.175,3.877 2.4429,2.9335 h 0.547 V 1.8777 H 3.36001 V 2.9335 H 3.9071 Z"
         fill="#050505"
         stroke-width="0.11742"
         id="path2549"
         style="fill:#191919;stroke:#191919" />
    </g>
  </g>
</svg>
