<svg width="24" height="24" version="1.1" viewBox="0 0 24 24" xmlns="http://www.w3.org/2000/svg"><path d="m1.666 1.6855v.75 5.584.75.79492 4.8711.75.71289 6.416h7.8789 6.3945 6.3945v-7.8789-6.416-6.334h-6.3945-6.3945-7.8789zm1.5 1.5h4.8789v4.834h-4.8789v-4.834zm6.3945 0h4.8789v4.834h-4.8789v-4.834zm6.3945 0h4.8789v4.834h-4.8789v-4.834zm-12.789 6.3789h4.8789v4.834h-4.8789v-4.834zm6.3945 0h4.8789v4.834h-4.8789v-4.834zm6.3945 0h4.8789v4.834h-4.8789v-4.834zm-12.789 6.3711h4.8789v4.8789h-4.8789v-4.8789zm6.3945 0h4.8789v4.8789h-4.8789v-4.8789zm6.3945 0h4.8789v4.8789h-4.8789v-4.8789z" style="fill:#00ff00"/></svg>
