<svg width="16" height="16" version="1.1" viewBox="0 0 4.2333 4.2333" xmlns="http://www.w3.org/2000/svg"><defs><clipPath id="clipPath7578"><path d="m413.5-63.886c-5.5087-.01007-11.255.2211-17.247.69883-151.44 12.196-111.28 172.19-113.52 225.76-2.7656 39.179-10.709 70.055-37.655 108.36-31.657 37.646-76.227 98.577-97.341 162-9.9648 29.935-14.707 60.446-10.327 89.324-1.3718 1.2285-2.6778 2.5156-3.9196 3.8413-9.2946 9.9228-16.162 21.946-23.815 30.041-7.1493 7.1316-17.335 9.8442-28.529 13.86-11.198 4.0177-23.492 9.941-30.955 24.261 0 0 0 .005-.005.007-.01218.0238-.02547.0461-.03816.0703-6.7556 12.618-4.7473 27.149-2.6841 40.611 2.0633 13.462 4.152 26.183 1.3795 34.814-8.8623 24.223-9.9937 40.978-3.755 53.132 6.252 12.179 19.107 17.555 33.635 20.589 29.057 6.0689 68.409 4.5608 99.422 20.998l2.6656-5.0297-2.638 5.0447c33.201 17.359 66.861 23.524 93.715 17.39 19.47-4.447 35.275-16.04 43.392-33.879 21.004-.10329 44.053-8.9992 80.974-11.032 25.047-2.0176 56.336 8.8946 92.325 6.8962.94075 3.9046 2.3023 7.6602 4.166 11.229.0191.0367.037.073.0565.10928 13.951 27.898 39.874 40.659 67.5 38.479 27.662-2.183 57.073-18.494 80.846-46.786l-4.3583-3.6627 4.3916 3.6224c22.66-27.476 60.272-38.869 85.212-53.911 12.47-7.5212 22.588-16.939 23.37-30.618.78137-13.672-7.2451-28.993-25.702-49.481l-.005-.005c-.007-.009-.0144-.017-.0216-.0255-6.0643-6.853-8.9573-19.554-12.066-33.08-3.1068-13.518-6.5748-28.099-17.673-37.549-.0222-.0196-.0446-.0371-.0668-.0565-4.4168-3.8487-9.0066-6.4608-13.629-8.2157 15.429-45.76 9.3756-91.326-6.1994-132.5-19.115-50.534-52.487-94.566-77.974-124.69-28.528-35.984-56.431-70.148-55.882-120.61.84975-77.011 8.471-219.83-127.05-220.01zm18.346 118.64c7.6898 0 14.257 2.254 21.004 7.1506 6.8535 4.9743 11.791 11.201 15.77 19.897 3.9057 8.4748 5.7849 16.765 5.9692 26.603 0 .25793 0 .47896.0737.7369.0737 10.096-1.6581 18.681-5.4902 27.451-2.1866 5.004-4.6977 9.2039-7.7033 12.84-1.0204-.48987-2.0801-.96088-3.1792-1.4128-7.6184-3.263-13.463-5.3395-18.334-7.0297 1.7657-2.1224 3.2359-4.6395 4.5287-7.7862 1.9529-4.7532 2.9109-9.396 3.0951-14.923 0-.22114.0737-.40539.0737-.66331.1105-5.3058-.58955-9.8381-2.1371-14.481-1.6213-4.8637-3.6847-8.3641-6.6693-11.275-2.9846-2.911-5.9692-4.2374-9.5434-4.348-.16756-.0101-.33463-.0101-.49969-.0101-3.362.0101-6.2812 1.163-9.3015 3.6916-3.1688 2.6531-5.527 6.0428-7.4799 10.759-1.9529 4.7163-2.9109 9.3958-3.0951 14.96-.037.22114-.037.40539-.037.62643-.0637 3.0584.13058 5.86.6022 8.5806-6.8791-3.4278-13.362-5.7647-19.446-7.2128-.34682-2.6309-.54743-5.3458-.61148-8.1845v-.77387c-.11056-10.059 1.5476-18.681 5.4165-27.451 3.8689-8.7696 8.659-15.07 15.402-20.192 6.743-5.1217 13.375-7.4798 21.224-7.5536h.36733zm-105.25 8.3331c5.1013.0121 9.6659 1.7163 14.388 5.4868 5.1217 4.0899 8.9906 9.3221 12.233 16.692 3.2425 7.3694 4.9743 14.739 5.4533 23.435v.0732c.23218 3.6522.20379 7.09-.0841 10.419-1.0089.28676-1.9976.59704-2.9662.93048-5.5004 1.8934-10.348 4.4736-14.573 7.2635.41314-2.9183.47463-5.8793.15775-9.1807-.0371-.18425-.0371-.33162-.0371-.51578-.44217-4.3848-1.3633-8.0694-2.9109-11.791-1.6581-3.8688-3.5004-6.5955-5.9324-8.6959-2.2039-1.9033-4.2862-2.7773-6.5771-2.76-.23701 0-.47671.0131-.71849.0332-2.5793.2209-4.7164 1.4737-6.743 3.9425-2.0266 2.4687-3.353 5.527-4.311 9.5801-.95803 4.0532-1.216 8.0327-.81066 12.602 0 .18416.0371.33171.0371.51586.44211 4.4217 1.3264 8.1063 2.9109 11.828 1.6213 3.832 3.5004 6.5587 5.9324 8.6589.40727.35174.81019.6677 1.2113.94998-2.5295 1.9468-3.7374 2.8444-5.8102 4.3675-1.3295.97552-2.9129 2.137-4.7532 3.4936-4.0134-3.7597-7.1444-8.4849-9.8819-14.706-3.2425-7.3693-4.9743-14.739-5.4902-23.435v-.0732c-.47899-8.6958.36847-16.176 2.7635-23.914 2.395-7.7379 5.6008-13.339 10.243-17.945 4.6427-4.6058 9.3223-6.9271 14.96-7.2218.44042-.0242.87692-.0352 1.3092-.0332zm47.867 60.329c11.857-.0458 26.124 3.8414 43.397 14.947 10.61 6.8996 18.866 7.4763 37.876 15.618l.0228.0101.0233.009c9.1467 3.7529 14.515 8.6445 17.138 13.796 2.6229 5.1512 2.6871 10.737.49165 16.613-4.3907 11.753-18.406 24.121-38.073 30.263l-.0186.008-.0175.008c-9.5896 3.1157-17.952 9.9961-27.81 15.633-9.8581 5.637-21.013 10.184-36.181 9.3061-12.913-.75261-20.632-5.1363-27.611-10.745-6.9796-5.6093-13.062-12.656-21.968-17.886l-.0228-.0137-.0233-.0137c-14.346-8.1084-22.178-17.487-24.636-25.617-2.4581-8.1301-.15126-15.07 6.9663-20.404 8.0022-5.9971 13.561-10.076 17.264-12.794 3.6785-2.6993 5.2089-3.7114 6.3803-4.8362.006-.009.0123-.0128.0185-.0183l.005-.009c6.0126-5.6914 15.597-16.06 30.045-21.034 4.9726-1.7118 10.521-2.8162 16.732-2.8407zm82.91 49.035c-5.1165.30507-10.475 2.9394-16.715 6.4229-6.2395 3.4834-13.256 7.9394-20.86 12.328-15.208 8.7762-32.714 17.169-50.112 17.169-17.425 0-31.346-8.0474-41.788-16.322-5.2209-4.1373-9.5298-8.3046-12.972-11.528-1.7213-1.612-3.2141-2.9859-4.607-4.059-1.3927-1.0731-2.5263-2.1371-4.8569-2.1371l-.11168 4.8972c-.16687 1.6386-.33834 1.5881-.27059 1.6328.10871.0714.64946.25783 1.2804.74386 1.024.78889 2.4455 2.0749 4.1326 3.6547 3.3742 3.1598 7.8577 7.5042 13.378 11.879 11.04 8.7486 26.393 17.724 45.816 17.724 19.449 0 37.85-9.0906 53.354-18.038 7.7519-4.4736 14.792-8.9391 20.779-12.281 5.9866-3.3424 11.023-5.4384 13.94-5.6123zm17.288 23.274c12.918 50.921 42.963 124.47 62.273 160.36 10.264 19.043 30.685 59.504 39.508 108.25 5.5905-.17127 11.746.64098 18.338 2.3271 23.068-59.802-19.561-124.22-39.054-142.16-7.8699-7.6366-8.2482-11.058-4.3468-10.896 21.149 18.703 48.913 56.32 59.015 98.781 4.606 19.361 5.5881 39.715.64599 59.802 2.4179 1.0045 4.8736 2.0966 7.3624 3.2748 37.028 18.031 50.722 33.71 44.138 55.109-2.1686-.0761-4.3018-.0675-6.3825-.0175-.19419.005-.38692.0101-.58039.0148 5.362-16.962-6.5167-29.473-38.17-43.795-32.831-14.444-58.992-13.007-63.413 16.286-.28298 1.5347-.51061 3.0985-.68399 4.6841-2.4528.85176-4.9189 1.9392-7.3912 3.292-15.416 8.4352-23.83 23.741-28.51 42.513-4.6761 18.757-6.0166 41.433-7.3072 66.924v.0132c-.78851 12.818-6.0583 30.154-11.403 48.516-53.781 38.363-128.43 54.984-191.8 11.733-4.2949-6.7942-9.2218-13.526-14.293-20.165-3.2385-4.24-6.5652-8.454-9.8726-12.609 6.5058.005 12.036-1.0604 16.505-3.0869 5.5579-2.5202 9.4629-6.568 11.395-11.765 3.8638-10.393-.0169-25.055-12.386-41.797-12.369-16.741-33.317-35.636-64.099-54.514 0 0-.005 0-.005-.005-22.614-14.069-35.261-31.314-41.181-50.037-5.9202-18.725-5.0901-38.972-.52737-58.963 8.7578-38.371 31.26-75.69 45.617-99.11 3.8655-2.8442 1.3811 5.2794-14.535 34.835-14.264 27.022-40.931 89.384-4.4193 138.06.97573-34.642 9.2489-69.973 23.137-103.02 20.23-45.857 62.543-125.38 65.904-188.76 1.7327 1.2582 7.687 5.2757 10.34 6.7845.005.008.0117.008.017.009 7.7625 4.5712 13.592 11.253 21.143 17.322 7.5657 6.0803 17.017 11.332 31.297 12.164 16.667.96445 29.37-4.1979 39.777-10.149 10.392-5.9422 18.693-12.518 26.559-15.085.0123-.008.0239-.008.0355-.0113 16.62-5.1972 29.834-14.396 37.353-25.125zm105.56 291.52c6.7316-.0312 14.886 2.2131 23.812 6.2064 24.024 11.091 31.541 20.597 24.982 34.562-5.527 10.538-29.183 27.303-45.395 22.882-16.544-4.2742-24.614-28.114-21.924-46.132 1.4408-12.235 8.3614-17.471 18.525-17.518zm-27.181 32.926c1.358 22.034 12.259 44.505 31.539 49.369 21.098 5.5587 51.516-12.543 64.359-27.308 2.5608-.1025 5.0645-.22799 7.496-.28668 11.266-.27202 20.715.37107 30.369 8.8144l.0334.0286.0344.0286c7.419 6.2855 10.946 18.164 14.004 31.471 3.0584 13.307 5.5042 27.799 14.677 38.124l.0137.0148.0127.0148c17.634 19.568 23.302 32.795 22.82 41.237-.48253 8.4424-6.5951 14.71-17.882 21.517-22.564 13.61-62.545 25.444-88.082 56.377-22.174 26.388-49.213 40.881-73.026 42.761-23.813 1.8792-44.358-8.004-56.47-32.315l-.0276-.0551-.0286-.0542c-7.5142-14.294-4.384-36.852 1.9459-60.646 6.3301-23.794 15.425-48.226 16.642-68.084v-.0614c1.2879-25.443 2.712-47.663 6.986-64.807 4.2739-17.144 11.004-28.755 22.928-35.28.55528-.3038 1.1065-.59044 1.6546-.8613zm-387.23 1.6627c1.7798.007 3.6632.1558 5.6698.45944 13.498 2.0446 25.268 11.482 36.608 26.864s21.892 36.379 32.74 59.67l.0138.0286.0127.0276c8.7168 18.193 27.111 38.198 42.699 58.606s27.652 40.893 26.081 56.571l-.007.0681-.005.0679c-2.0322 26.741-17.117 41.298-40.272 46.587-23.149 5.2872-54.531.017-85.876-16.365-.009-.005-.0186-.009-.0276-.0148-34.69-18.38-75.95-16.55-102.41-22.08-13.237-2.76-21.873-6.92-25.837-14.64s-4.053-21.2 4.371-44.16l.03705-.1014.03333-.10255c4.1657-12.85 1.0829-26.909-.93959-40.105s-3.0115-25.2 1.4946-33.566l.02074-.0382.02054-.0392c5.7694-11.121 14.232-15.096 24.735-18.864 10.503-3.7682 22.957-6.7276 32.791-16.583l.0509-.052.0508-.053c9.0917-9.5912 15.921-21.614 23.914-30.146 6.7438-7.1996 13.493-11.971 23.665-12.042h.35465z" style="color:#000000;fill:#1a1a1a;text-decoration-line:none;text-indent:0;text-transform:none"/></clipPath></defs><circle transform="matrix(.01037 0 0 .01037 -2.0388 1.451)" cx="400.71" cy="108.79" r="256.43" clip-path="url(#clipPath7578)" style="fill:#00ff00"/></svg>
